<svg xmlns="http://www.w3.org/2000/svg" version="1.1" xmlns:xlink="http://www.w3.org/1999/xlink" xmlns:svgjs="http://svgjs.dev/svgjs" width="2000" height="1500" viewBox="0 0 2000 1500"><rect width="2000" height="1500" fill="#f8f5f0"></rect><g transform="matrix(0.75,0,0,0.75,250.21660740252355,268.1404858299595)"><svg viewBox="0 0 384 247" data-background-color="#f8f5f0" preserveAspectRatio="xMidYMid meet" height="1286" width="2000" xmlns="http://www.w3.org/2000/svg" xmlns:xlink="http://www.w3.org/1999/xlink"><g id="tight-bounds" transform="matrix(1,0,0,1,-0.05545149504601454,-0.09999999999999432)"><svg viewBox="0 0 384.11090299009203 247.2" height="247.2" width="384.11090299009203"><g><svg viewBox="0 0 395.52 254.54248561781125" height="247.2" width="384.11090299009203"><g transform="matrix(1,0,0,1,0,154.12636732155687)"><svg viewBox="0 0 395.52 100.41611829625438" height="100.41611829625438" width="395.52"><g id="textblocktransform"><svg viewBox="0 0 395.52 100.41611829625438" height="100.41611829625438" width="395.52" id="textblock"><g><svg viewBox="0 0 395.52 65.02690589527646" height="65.02690589527646" width="395.52"><g transform="matrix(1,0,0,1,0,0)"><svg width="395.52" viewBox="3.78 -33.13 204.8 33.68000000000001" height="65.02690589527646" data-palette-color="#1a1a1a"><path d="M14.48 0L6.58 0 6.58-3.5 14.33-3.5Q18.57-3.5 20.71-5.81 22.85-8.13 22.85-12.43L22.85-12.43 22.85-19.55Q22.85-23.88 20.71-26.18 18.57-28.48 14.33-28.48L14.33-28.48 6.55-28.48 6.55-31.95 14.48-31.95Q20.68-31.95 23.85-28.76 27.03-25.58 27.03-19.58L27.03-19.58 27.03-12.4Q27.03-6.43 23.85-3.21 20.68 0 14.48 0L14.48 0ZM7.88 0L3.78 0 3.78-31.95 7.88-31.95 7.88 0ZM43.12 0.55L43.12 0.55Q37.55 0.55 34.72-2.18 31.9-4.9 31.9-9.98L31.9-9.98 31.9-14.33Q31.9-19.48 34.52-22.26 37.15-25.05 42.2-25.05L42.2-25.05Q45.6-25.05 47.87-23.79 50.15-22.53 51.3-20.2 52.45-17.88 52.45-14.65L52.45-14.65 52.45-13.75Q52.45-12.95 52.39-12.15 52.32-11.35 52.22-10.58L52.22-10.58 48.5-10.58Q48.55-11.78 48.56-12.85 48.57-13.93 48.57-14.83L48.57-14.83Q48.57-17.05 47.86-18.59 47.15-20.13 45.73-20.94 44.32-21.75 42.2-21.75L42.2-21.75Q39.05-21.75 37.47-19.93 35.9-18.1 35.9-14.7L35.9-14.7 35.9-12.38 35.92-11.88 35.92-9.55Q35.92-8.03 36.37-6.8 36.82-5.58 37.79-4.69 38.75-3.8 40.23-3.34 41.72-2.88 43.77-2.88L43.77-2.88Q46.15-2.88 48.2-3.5 50.25-4.13 52.05-5.2L52.05-5.2 51.67-1.7Q50.05-0.68 47.9-0.06 45.75 0.55 43.12 0.55ZM51.37-10.58L34.02-10.58 34.02-13.63 51.37-13.63 51.37-10.58ZM66.17-2.78L66.77-2.78 73.52-24.4 77.72-24.4 69.8 0 63.15 0 55.22-24.4 59.42-24.4 66.17-2.78ZM116.64 0L112.59 0 112.59-15.28Q112.59-17.2 112.11-18.61 111.62-20.03 110.51-20.8 109.39-21.58 107.52-21.58L107.52-21.58Q105.74-21.58 104.44-20.85 103.14-20.13 102.34-18.91 101.54-17.7 101.22-16.15L101.22-16.15 100.59-19.03 101.09-19.03Q101.49-20.6 102.44-21.95 103.39-23.3 105.02-24.13 106.64-24.95 109.04-24.95L109.04-24.95Q111.77-24.95 113.43-23.88 115.09-22.8 115.87-20.74 116.64-18.68 116.64-15.73L116.64-15.73 116.64 0ZM86.17 0L82.12 0 82.12-24.4 86.17-24.4 85.99-18.55 86.17-18.3 86.17 0ZM101.39 0L97.37 0 97.37-15.28Q97.37-17.2 96.88-18.61 96.39-20.03 95.29-20.8 94.19-21.58 92.32-21.58L92.32-21.58Q90.52-21.58 89.22-20.85 87.92-20.13 87.12-18.89 86.32-17.65 85.99-16.07L85.99-16.07 85.24-18.95 86.14-18.95Q86.52-20.6 87.44-21.96 88.37-23.33 89.96-24.14 91.54-24.95 93.82-24.95L93.82-24.95Q97.19-24.95 98.96-23.2 100.72-21.45 101.17-18.1L101.17-18.1Q101.29-17.6 101.34-17.01 101.39-16.43 101.39-15.85L101.39-15.85 101.39 0ZM141.42 0L137.39 0 137.56-5.93 137.42-6.55 137.42-14.33 137.44-15.75Q137.44-18.73 135.93-20.15 134.42-21.58 131.14-21.58L131.14-21.58Q128.52-21.58 126.33-20.83 124.14-20.08 122.44-19.07L122.44-19.07 122.82-22.53Q123.77-23.1 125.08-23.66 126.39-24.23 128.08-24.6 129.77-24.98 131.79-24.98L131.79-24.98Q134.42-24.98 136.25-24.34 138.09-23.7 139.23-22.5 140.37-21.3 140.89-19.6 141.42-17.9 141.42-15.8L141.42-15.8 141.42 0ZM128.99 0.53L128.99 0.53Q125.37 0.53 123.43-1.24 121.49-3 121.49-6.28L121.49-6.28 121.49-7Q121.49-10.38 123.58-12.04 125.67-13.7 130.22-14.35L130.22-14.35 137.94-15.45 138.17-12.5 130.72-11.43Q127.92-11.03 126.72-10.06 125.52-9.1 125.52-7.23L125.52-7.23 125.52-6.83Q125.52-4.9 126.7-3.88 127.89-2.85 130.27-2.85L130.27-2.85Q132.37-2.85 133.87-3.58 135.37-4.3 136.29-5.53 137.22-6.75 137.54-8.25L137.54-8.25 138.17-5.5 137.39-5.5Q137.04-3.9 136.08-2.53 135.12-1.15 133.39-0.31 131.67 0.53 128.99 0.53ZM156.26 0.5L156.26 0.5Q153.44 0.5 151.71-0.35 149.99-1.2 149.21-2.93 148.44-4.65 148.44-7.23L148.44-7.23 148.44-22.63 152.44-22.63 152.44-7.7Q152.44-5.3 153.54-4.16 154.64-3.03 157.24-3.03L157.24-3.03Q158.71-3.03 160.08-3.35 161.44-3.68 162.64-4.28L162.64-4.28 162.26-0.8Q161.09-0.2 159.51 0.15 157.94 0.5 156.26 0.5ZM162.01-20.8L144.44-20.8 144.44-24.05 162.39-24.05 162.01-20.8ZM152.34-23.65L148.46-23.65 148.44-30.5 152.51-31.03 152.34-23.65ZM175.91 0.55L175.91 0.55Q170.66 0.55 168.1-2.29 165.53-5.13 165.53-10.33L165.53-10.33 165.53-14.13Q165.53-19.35 168.11-22.16 170.69-24.98 175.91-24.98L175.91-24.98Q177.46-24.98 178.74-24.69 180.01-24.4 181.02-23.94 182.03-23.48 182.74-22.98L182.74-22.98 183.09-19.45Q181.91-20.35 180.3-20.98 178.69-21.6 176.51-21.6L176.51-21.6Q173.01-21.6 171.3-19.66 169.59-17.73 169.59-14.03L169.59-14.03 169.59-10.43Q169.59-6.8 171.3-4.85 173.01-2.9 176.51-2.9L176.51-2.9Q178.76-2.9 180.4-3.53 182.03-4.15 183.31-5.05L183.31-5.05 182.94-1.48Q181.84-0.73 180.06-0.09 178.28 0.55 175.91 0.55ZM208.58 0L204.53 0 204.53-15.18Q204.53-17.15 204-18.57 203.46-20 202.25-20.79 201.03-21.58 198.93-21.58L198.93-21.58Q197.01-21.58 195.61-20.85 194.21-20.13 193.35-18.89 192.48-17.65 192.13-16.07L192.13-16.07 191.23-18.95 192.28-18.95Q192.66-20.6 193.66-21.96 194.66-23.33 196.35-24.14 198.03-24.95 200.46-24.95L200.46-24.95Q203.36-24.95 205.15-23.85 206.93-22.75 207.76-20.69 208.58-18.63 208.58-15.63L208.58-15.63 208.58 0ZM192.26 0L188.21 0 188.21-33.13 192.23-33.13 192.23-25.18 192.11-18.18 192.26-17.85 192.26 0Z" opacity="1" transform="matrix(1,0,0,1,0,0)" fill="#1a1a1a" class="wordmark-text-0" data-fill-palette-color="primary" id="text-0"></path></svg></g></svg></g><g transform="matrix(1,0,0,1,45.48480000000001,80.37819773140974)"><svg viewBox="0 0 304.55039999999997 20.037920564844633" height="20.037920564844633" width="304.55039999999997"><g transform="matrix(1,0,0,1,0,0)"><svg width="304.55039999999997" viewBox="3.78 -33.48 644.34 42.41" height="20.037920564844633" data-palette-color="#1a1a1a"><path d="M7.93 0L3.78 0 3.78-31.95 7.93-31.95 7.93 0ZM22.6-13.38L6.13-13.38 6.13-16.85 22.6-16.85 22.6-13.38ZM22.98-28.48L4.98-28.48 4.98-31.95 22.98-31.95 22.98-28.48ZM32.45 0L28.4 0 28.4-24.4 32.45-24.4 32.45 0ZM30.42-28.4L30.42-28.4Q29.17-28.4 28.56-29.06 27.95-29.73 27.95-30.88L27.95-30.88 27.95-31Q27.95-32.18 28.56-32.83 29.17-33.48 30.42-33.48L30.42-33.48Q31.67-33.48 32.3-32.83 32.92-32.18 32.92-31L32.92-31 32.92-30.88Q32.92-29.7 32.3-29.05 31.67-28.4 30.42-28.4ZM59.52 0L55.47 0 55.47-15.18Q55.47-17.15 54.93-18.57 54.4-20 53.18-20.79 51.97-21.58 49.87-21.58L49.87-21.58Q47.95-21.58 46.53-20.85 45.12-20.13 44.25-18.89 43.37-17.65 43.02-16.07L43.02-16.07 42.3-18.95 43.17-18.95Q43.57-20.6 44.57-21.96 45.57-23.33 47.26-24.14 48.95-24.95 51.4-24.95L51.4-24.95Q54.3-24.95 56.08-23.85 57.87-22.75 58.7-20.69 59.52-18.63 59.52-15.63L59.52-15.63 59.52 0ZM43.2 0L39.15 0 39.15-24.4 43.2-24.4 43.02-18.55 43.2-18.32 43.2 0ZM73.84 0.53L73.84 0.53Q69.44 0.53 67.14-2.2 64.84-4.93 64.84-10.15L64.84-10.15 64.84-14.18Q64.84-19.43 67.17-22.19 69.49-24.95 74.02-24.95L74.02-24.95Q76.27-24.95 77.92-24.19 79.57-23.43 80.59-22.05 81.62-20.68 81.97-18.8L81.97-18.8 83.29-18.8 82.09-15.08Q82.02-17.23 81.13-18.69 80.24-20.15 78.73-20.9 77.22-21.65 75.27-21.65L75.27-21.65Q72.17-21.65 70.53-19.85 68.89-18.05 68.89-14.55L68.89-14.55 68.89-9.9Q68.89-6.45 70.53-4.65 72.17-2.85 75.27-2.85L75.27-2.85Q77.12-2.85 78.54-3.56 79.97-4.28 80.91-5.54 81.84-6.8 82.19-8.4L82.19-8.4 83.19-5.5 81.99-5.5Q81.64-3.85 80.66-2.48 79.67-1.1 78.01-0.29 76.34 0.53 73.84 0.53ZM86.04 0L81.99 0 82.17-5.9 82.09-7.2 82.09-17.4 82.12-18.25 82.02-25.18 82.02-33.13 86.04-33.13 86.04 0ZM112.04 0.5L112.04 0.5Q109.21 0.5 107.49-0.35 105.76-1.2 104.99-2.93 104.21-4.65 104.21-7.23L104.21-7.23 104.21-22.63 108.21-22.63 108.21-7.7Q108.21-5.3 109.31-4.16 110.41-3.03 113.01-3.03L113.01-3.03Q114.49-3.03 115.85-3.35 117.21-3.68 118.41-4.28L118.41-4.28 118.04-0.8Q116.86-0.2 115.29 0.15 113.71 0.5 112.04 0.5ZM117.79-20.8L100.21-20.8 100.21-24.05 118.16-24.05 117.79-20.8ZM108.11-23.65L104.24-23.65 104.21-30.5 108.29-31.03 108.11-23.65ZM143.31 0L139.26 0 139.26-15.18Q139.26-17.15 138.72-18.57 138.19-20 136.97-20.79 135.76-21.58 133.66-21.58L133.66-21.58Q131.74-21.58 130.34-20.85 128.94-20.13 128.07-18.89 127.21-17.65 126.86-16.07L126.86-16.07 125.96-18.95 127.01-18.95Q127.39-20.6 128.39-21.96 129.39-23.33 131.07-24.14 132.76-24.95 135.19-24.95L135.19-24.95Q138.09-24.95 139.87-23.85 141.66-22.75 142.49-20.69 143.31-18.63 143.31-15.63L143.31-15.63 143.31 0ZM126.99 0L122.94 0 122.94-33.13 126.96-33.13 126.96-25.18 126.84-18.18 126.99-17.85 126.99 0ZM159.83 0.55L159.83 0.55Q154.26 0.55 151.43-2.18 148.61-4.9 148.61-9.98L148.61-9.98 148.61-14.33Q148.61-19.48 151.23-22.26 153.86-25.05 158.91-25.05L158.91-25.05Q162.31-25.05 164.58-23.79 166.86-22.53 168.01-20.2 169.16-17.88 169.16-14.65L169.16-14.65 169.16-13.75Q169.16-12.95 169.1-12.15 169.03-11.35 168.93-10.58L168.93-10.58 165.21-10.58Q165.26-11.78 165.27-12.85 165.28-13.93 165.28-14.83L165.28-14.83Q165.28-17.05 164.57-18.59 163.86-20.13 162.45-20.94 161.03-21.75 158.91-21.75L158.91-21.75Q155.76-21.75 154.18-19.93 152.61-18.1 152.61-14.7L152.61-14.7 152.61-12.38 152.63-11.88 152.63-9.55Q152.63-8.03 153.08-6.8 153.53-5.58 154.5-4.69 155.46-3.8 156.95-3.34 158.43-2.88 160.48-2.88L160.48-2.88Q162.86-2.88 164.91-3.5 166.96-4.13 168.76-5.2L168.76-5.2 168.38-1.7Q166.76-0.68 164.61-0.06 162.46 0.55 159.83 0.55ZM168.08-10.58L150.73-10.58 150.73-13.63 168.08-13.63 168.08-10.58ZM197.1 0.53L197.1 0.53Q194.85 0.53 193.19-0.23 191.53-0.98 190.5-2.38 189.48-3.78 189.13-5.63L189.13-5.63 187.78-5.63 189-9.43Q189.13-7.23 190.04-5.76 190.95-4.3 192.48-3.58 194-2.85 195.93-2.85L195.93-2.85Q198.98-2.85 200.59-4.65 202.2-6.45 202.2-10L202.2-10 202.2-14.58Q202.2-18.05 200.58-19.85 198.95-21.65 195.85-21.65L195.85-21.65Q194-21.65 192.58-20.93 191.15-20.2 190.22-18.95 189.28-17.7 188.93-16.1L188.93-16.1 188-18.93 189.15-18.93Q189.53-20.6 190.49-21.96 191.45-23.33 193.13-24.14 194.8-24.95 197.28-24.95L197.28-24.95Q201.68-24.95 203.98-22.21 206.28-19.48 206.28-14.28L206.28-14.28 206.28-10.23Q206.28-4.98 203.94-2.23 201.6 0.53 197.1 0.53ZM189.13 0L185.08 0 185.08-33.13 189.1-33.13 189.1-25.18 188.98-18.18 189-17.4 189-7.2 188.95-5.9 189.13 0ZM222.18 0.55L222.18 0.55Q216.6 0.55 213.78-2.18 210.95-4.9 210.95-9.98L210.95-9.98 210.95-14.33Q210.95-19.48 213.58-22.26 216.2-25.05 221.25-25.05L221.25-25.05Q224.65-25.05 226.93-23.79 229.2-22.53 230.35-20.2 231.5-17.88 231.5-14.65L231.5-14.65 231.5-13.75Q231.5-12.95 231.44-12.15 231.38-11.35 231.28-10.58L231.28-10.58 227.55-10.58Q227.6-11.78 227.61-12.85 227.63-13.93 227.63-14.83L227.63-14.83Q227.63-17.05 226.91-18.59 226.2-20.13 224.79-20.94 223.38-21.75 221.25-21.75L221.25-21.75Q218.1-21.75 216.53-19.93 214.95-18.1 214.95-14.7L214.95-14.7 214.95-12.38 214.98-11.88 214.98-9.55Q214.98-8.03 215.43-6.8 215.88-5.58 216.84-4.69 217.8-3.8 219.29-3.34 220.78-2.88 222.83-2.88L222.83-2.88Q225.2-2.88 227.25-3.5 229.3-4.13 231.1-5.2L231.1-5.2 230.73-1.7Q229.1-0.68 226.95-0.06 224.8 0.55 222.18 0.55ZM230.43-10.58L213.08-10.58 213.08-13.63 230.43-13.63 230.43-10.58ZM244.52 0.55L244.52 0.55Q241.57 0.55 239.37-0.09 237.17-0.73 235.72-1.48L235.72-1.48 235.35-5.23Q237.17-4.28 239.36-3.58 241.55-2.88 244.32-2.88L244.32-2.88Q247.15-2.88 248.57-3.78 250-4.67 250-6.45L250-6.45 250-6.73Q250-7.88 249.46-8.63 248.92-9.38 247.52-9.95 246.12-10.53 243.55-11.1L243.55-11.1Q240.47-11.78 238.7-12.69 236.92-13.6 236.16-14.95 235.4-16.3 235.4-18.25L235.4-18.25 235.4-18.48Q235.4-21.68 237.62-23.33 239.85-24.98 244.32-24.98L244.32-24.98Q247.2-24.98 249.31-24.33 251.42-23.68 252.77-22.88L252.77-22.88 253.15-19.45Q251.52-20.4 249.42-21.03 247.32-21.65 244.7-21.65L244.7-21.65Q242.8-21.65 241.62-21.26 240.45-20.88 239.92-20.16 239.4-19.45 239.4-18.45L239.4-18.45 239.4-18.25Q239.4-17.15 239.92-16.39 240.45-15.63 241.81-15.06 243.17-14.5 245.6-13.98L245.6-13.98Q248.72-13.35 250.56-12.48 252.4-11.6 253.2-10.26 254-8.93 254-6.83L254-6.83 254-6.4Q254-2.95 251.6-1.2 249.2 0.55 244.52 0.55ZM267.82 0.5L267.82 0.5Q265 0.5 263.27-0.35 261.55-1.2 260.77-2.93 260-4.65 260-7.23L260-7.23 260-22.63 264-22.63 264-7.7Q264-5.3 265.1-4.16 266.2-3.03 268.8-3.03L268.8-3.03Q270.27-3.03 271.63-3.35 273-3.68 274.2-4.28L274.2-4.28 273.82-0.8Q272.65-0.2 271.07 0.15 269.5 0.5 267.82 0.5ZM273.57-20.8L256-20.8 256-24.05 273.95-24.05 273.57-20.8ZM263.9-23.65L260.02-23.65 260-30.5 264.07-31.03 263.9-23.65ZM298.64 0.55L298.64 0.55Q293.39 0.55 290.83-2.29 288.26-5.13 288.26-10.33L288.26-10.33 288.26-14.13Q288.26-19.35 290.84-22.16 293.42-24.98 298.64-24.98L298.64-24.98Q300.19-24.98 301.46-24.69 302.74-24.4 303.75-23.94 304.76-23.48 305.46-22.98L305.46-22.98 305.81-19.45Q304.64-20.35 303.03-20.98 301.42-21.6 299.24-21.6L299.24-21.6Q295.74-21.6 294.03-19.66 292.31-17.73 292.31-14.03L292.31-14.03 292.31-10.43Q292.31-6.8 294.03-4.85 295.74-2.9 299.24-2.9L299.24-2.9Q301.49-2.9 303.13-3.53 304.76-4.15 306.04-5.05L306.04-5.05 305.67-1.48Q304.56-0.73 302.79-0.09 301.01 0.55 298.64 0.55ZM310.64-24.4L314.66-24.4 314.66-9.22Q314.66-7.3 315.2-5.86 315.74-4.42 316.96-3.64 318.19-2.85 320.26-2.85L320.26-2.85Q322.21-2.85 323.61-3.56 325.01-4.28 325.9-5.53 326.79-6.78 327.11-8.35L327.11-8.35 327.84-5.48 326.96-5.48Q326.59-3.83 325.59-2.46 324.59-1.1 322.9-0.29 321.21 0.53 318.74 0.53L318.74 0.53Q315.86 0.53 314.07-0.56 312.29-1.65 311.46-3.74 310.64-5.83 310.64-8.78L310.64-8.78 310.64-24.4ZM326.94-24.4L330.99-24.4 330.99 0 326.94 0 327.11-5.85 326.94-6.1 326.94-24.4ZM341.43-14.93L341.43-14.93 340.51-18.05 341.51-18.1Q342.31-21.2 344.26-22.99 346.21-24.78 349.43-24.78L349.43-24.78Q350.23-24.78 350.87-24.65 351.51-24.53 352.01-24.35L352.01-24.35 352.26-20.43Q351.63-20.63 350.87-20.75 350.11-20.88 349.18-20.88L349.18-20.88Q346.43-20.88 344.4-19.35 342.36-17.82 341.43-14.93ZM341.63 0L337.58 0 337.58-24.4 341.53-24.4 341.33-17.2 341.63-16.9 341.63 0ZM374.73 0L370.71 0 370.88-5.93 370.73-6.55 370.73-14.33 370.76-15.75Q370.76-18.73 369.24-20.15 367.73-21.58 364.46-21.58L364.46-21.58Q361.83-21.58 359.64-20.83 357.46-20.08 355.76-19.07L355.76-19.07 356.13-22.53Q357.08-23.1 358.39-23.66 359.71-24.23 361.39-24.6 363.08-24.98 365.11-24.98L365.11-24.98Q367.73-24.98 369.57-24.34 371.41-23.7 372.54-22.5 373.68-21.3 374.21-19.6 374.73-17.9 374.73-15.8L374.73-15.8 374.73 0ZM362.31 0.53L362.31 0.53Q358.68 0.53 356.74-1.24 354.81-3 354.81-6.28L354.81-6.28 354.81-7Q354.81-10.38 356.89-12.04 358.98-13.7 363.53-14.35L363.53-14.35 371.26-15.45 371.48-12.5 364.03-11.43Q361.23-11.03 360.03-10.06 358.83-9.1 358.83-7.23L358.83-7.23 358.83-6.83Q358.83-4.9 360.02-3.88 361.21-2.85 363.58-2.85L363.58-2.85Q365.68-2.85 367.18-3.58 368.68-4.3 369.61-5.53 370.53-6.75 370.86-8.25L370.86-8.25 371.48-5.5 370.71-5.5Q370.36-3.9 369.39-2.53 368.43-1.15 366.71-0.31 364.98 0.53 362.31 0.53ZM389.8 0.5L389.8 0.5Q386.98 0.5 385.25-0.35 383.53-1.2 382.75-2.93 381.98-4.65 381.98-7.23L381.98-7.23 381.98-22.63 385.98-22.63 385.98-7.7Q385.98-5.3 387.08-4.16 388.18-3.03 390.78-3.03L390.78-3.03Q392.25-3.03 393.62-3.35 394.98-3.68 396.18-4.28L396.18-4.28 395.8-0.8Q394.63-0.2 393.05 0.15 391.48 0.5 389.8 0.5ZM395.55-20.8L377.98-20.8 377.98-24.05 395.93-24.05 395.55-20.8ZM385.88-23.65L382-23.65 381.98-30.5 386.05-31.03 385.88-23.65ZM410.95 0.55L410.95 0.55Q405.38 0.55 402.55-2.18 399.73-4.9 399.73-9.98L399.73-9.98 399.73-14.33Q399.73-19.48 402.35-22.26 404.98-25.05 410.03-25.05L410.03-25.05Q413.43-25.05 415.7-23.79 417.98-22.53 419.13-20.2 420.28-17.88 420.28-14.65L420.28-14.65 420.28-13.75Q420.28-12.95 420.21-12.15 420.15-11.35 420.05-10.58L420.05-10.58 416.33-10.58Q416.38-11.78 416.39-12.85 416.4-13.93 416.4-14.83L416.4-14.83Q416.4-17.05 415.69-18.59 414.98-20.13 413.56-20.94 412.15-21.75 410.03-21.75L410.03-21.75Q406.88-21.75 405.3-19.93 403.73-18.1 403.73-14.7L403.73-14.7 403.73-12.38 403.75-11.88 403.75-9.55Q403.75-8.03 404.2-6.8 404.65-5.58 405.61-4.69 406.58-3.8 408.06-3.34 409.55-2.88 411.6-2.88L411.6-2.88Q413.98-2.88 416.03-3.5 418.08-4.13 419.88-5.2L419.88-5.2 419.5-1.7Q417.88-0.68 415.73-0.06 413.58 0.55 410.95 0.55ZM419.2-10.58L401.85-10.58 401.85-13.63 419.2-13.63 419.2-10.58ZM433.72 0.53L433.72 0.53Q429.32 0.53 427.02-2.2 424.72-4.93 424.72-10.15L424.72-10.15 424.72-14.18Q424.72-19.43 427.05-22.19 429.37-24.95 433.9-24.95L433.9-24.95Q436.15-24.95 437.8-24.19 439.45-23.43 440.47-22.05 441.5-20.68 441.85-18.8L441.85-18.8 443.17-18.8 441.97-15.08Q441.9-17.23 441.01-18.69 440.12-20.15 438.61-20.9 437.1-21.65 435.15-21.65L435.15-21.65Q432.05-21.65 430.41-19.85 428.77-18.05 428.77-14.55L428.77-14.55 428.77-9.9Q428.77-6.45 430.41-4.65 432.05-2.85 435.15-2.85L435.15-2.85Q437-2.85 438.42-3.56 439.85-4.28 440.79-5.54 441.72-6.8 442.07-8.4L442.07-8.4 443.07-5.5 441.87-5.5Q441.52-3.85 440.54-2.48 439.55-1.1 437.89-0.29 436.22 0.53 433.72 0.53ZM445.92 0L441.87 0 442.05-5.9 441.97-7.2 441.97-17.4 442-18.25 441.9-25.18 441.9-33.13 445.92-33.13 445.92 0ZM471.92 0.5L471.92 0.5Q469.09 0.5 467.37-0.35 465.64-1.2 464.87-2.93 464.09-4.65 464.09-7.23L464.09-7.23 464.09-22.63 468.09-22.63 468.09-7.7Q468.09-5.3 469.19-4.16 470.29-3.03 472.89-3.03L472.89-3.03Q474.37-3.03 475.73-3.35 477.09-3.68 478.29-4.28L478.29-4.28 477.92-0.8Q476.74-0.2 475.17 0.15 473.59 0.5 471.92 0.5ZM477.67-20.8L460.09-20.8 460.09-24.05 478.04-24.05 477.67-20.8ZM467.99-23.65L464.12-23.65 464.09-30.5 468.17-31.03 467.99-23.65ZM493.07 0.55L493.07 0.55Q487.49 0.55 484.67-2.18 481.84-4.9 481.84-9.98L481.84-9.98 481.84-14.33Q481.84-19.48 484.47-22.26 487.09-25.05 492.14-25.05L492.14-25.05Q495.54-25.05 497.82-23.79 500.09-22.53 501.24-20.2 502.39-17.88 502.39-14.65L502.39-14.65 502.39-13.75Q502.39-12.95 502.33-12.15 502.27-11.35 502.17-10.58L502.17-10.58 498.44-10.58Q498.49-11.78 498.5-12.85 498.52-13.93 498.52-14.83L498.52-14.83Q498.52-17.05 497.8-18.59 497.09-20.13 495.68-20.94 494.27-21.75 492.14-21.75L492.14-21.75Q488.99-21.75 487.42-19.93 485.84-18.1 485.84-14.7L485.84-14.7 485.84-12.38 485.87-11.88 485.87-9.55Q485.87-8.03 486.32-6.8 486.77-5.58 487.73-4.69 488.69-3.8 490.18-3.34 491.67-2.88 493.72-2.88L493.72-2.88Q496.09-2.88 498.14-3.5 500.19-4.13 501.99-5.2L501.99-5.2 501.62-1.7Q499.99-0.68 497.84-0.06 495.69 0.55 493.07 0.55ZM501.32-10.58L483.97-10.58 483.97-13.63 501.32-13.63 501.32-10.58ZM517.19 0.55L517.19 0.55Q511.94 0.55 509.38-2.29 506.81-5.13 506.81-10.33L506.81-10.33 506.81-14.13Q506.81-19.35 509.39-22.16 511.96-24.98 517.19-24.98L517.19-24.98Q518.74-24.98 520.01-24.69 521.29-24.4 522.3-23.94 523.31-23.48 524.01-22.98L524.01-22.98 524.37-19.45Q523.19-20.35 521.58-20.98 519.96-21.6 517.79-21.6L517.79-21.6Q514.29-21.6 512.58-19.66 510.86-17.73 510.86-14.03L510.86-14.03 510.86-10.43Q510.86-6.8 512.58-4.85 514.29-2.9 517.79-2.9L517.79-2.9Q520.04-2.9 521.68-3.53 523.31-4.15 524.59-5.05L524.59-5.05 524.21-1.48Q523.12-0.73 521.34-0.09 519.56 0.55 517.19 0.55ZM549.86 0L545.81 0 545.81-15.18Q545.81-17.15 545.27-18.57 544.74-20 543.52-20.79 542.31-21.58 540.21-21.58L540.21-21.58Q538.29-21.58 536.89-20.85 535.49-20.13 534.62-18.89 533.76-17.65 533.41-16.07L533.41-16.07 532.51-18.95 533.56-18.95Q533.94-20.6 534.94-21.96 535.94-23.33 537.62-24.14 539.31-24.95 541.74-24.95L541.74-24.95Q544.64-24.95 546.42-23.85 548.21-22.75 549.04-20.69 549.86-18.63 549.86-15.63L549.86-15.63 549.86 0ZM533.54 0L529.49 0 529.49-33.13 533.51-33.13 533.51-25.18 533.39-18.18 533.54-17.85 533.54 0ZM571.48-3.33L567.43-3.33 567.43-24.4 571.48-24.4 571.48-3.33ZM569.46-28.4L569.46-28.4Q568.21-28.4 567.59-29.06 566.98-29.73 566.98-30.88L566.98-30.88 566.98-31Q566.98-32.18 567.59-32.83 568.21-33.48 569.46-33.48L569.46-33.48Q570.71-33.48 571.33-32.83 571.96-32.18 571.96-31L571.96-31 571.96-30.88Q571.96-29.7 571.33-29.05 570.71-28.4 569.46-28.4ZM564.46 8.93L564.46 8.93Q563.38 8.93 562.43 8.74 561.48 8.55 560.81 8.3L560.81 8.3 560.46 4.95Q561.16 5.28 561.92 5.44 562.68 5.6 563.51 5.6L563.51 5.6Q565.76 5.6 566.59 4.39 567.43 3.18 567.43 0.9L567.43 0.9 567.43-6.83 571.48-6.83 571.48 1.1Q571.48 3.55 570.81 5.3 570.13 7.05 568.58 7.99 567.03 8.93 564.46 8.93ZM587.88 0.63L587.88 0.63Q582.63 0.63 579.92-2.21 577.2-5.05 577.2-10.38L577.2-10.38 577.2-14.1Q577.2-19.4 579.93-22.23 582.65-25.05 587.88-25.05L587.88-25.05Q593.13-25.05 595.84-22.23 598.55-19.4 598.55-14.1L598.55-14.1 598.55-10.38Q598.55-5.05 595.84-2.21 593.13 0.63 587.88 0.63ZM587.88-2.68L587.88-2.68Q591.13-2.68 592.82-4.6 594.5-6.53 594.5-10.15L594.5-10.15 594.5-14.33Q594.5-17.93 592.82-19.84 591.13-21.75 587.88-21.75L587.88-21.75Q584.65-21.75 582.95-19.84 581.25-17.93 581.25-14.33L581.25-14.33 581.25-10.15Q581.25-6.53 582.95-4.6 584.65-2.68 587.88-2.68ZM616.2 0.53L616.2 0.53Q613.95 0.53 612.29-0.23 610.63-0.98 609.6-2.38 608.58-3.78 608.23-5.63L608.23-5.63 606.88-5.63 608.1-9.43Q608.23-7.23 609.14-5.76 610.05-4.3 611.58-3.58 613.1-2.85 615.03-2.85L615.03-2.85Q618.08-2.85 619.69-4.65 621.3-6.45 621.3-10L621.3-10 621.3-14.58Q621.3-18.05 619.68-19.85 618.05-21.65 614.95-21.65L614.95-21.65Q613.1-21.65 611.68-20.93 610.25-20.2 609.31-18.95 608.38-17.7 608.03-16.1L608.03-16.1 607.1-18.93 608.25-18.93Q608.63-20.6 609.59-21.96 610.55-23.33 612.23-24.14 613.9-24.95 616.38-24.95L616.38-24.95Q620.78-24.95 623.08-22.21 625.38-19.48 625.38-14.28L625.38-14.28 625.38-10.23Q625.38-4.98 623.04-2.23 620.7 0.53 616.2 0.53ZM608.23 0L604.18 0 604.18-33.13 608.2-33.13 608.2-25.18 608.08-18.18 608.1-17.4 608.1-7.2 608.05-5.9 608.23 0ZM638.65 0.55L638.65 0.55Q635.7 0.55 633.5-0.09 631.3-0.73 629.85-1.48L629.85-1.48 629.47-5.23Q631.3-4.28 633.49-3.58 635.67-2.88 638.45-2.88L638.45-2.88Q641.27-2.88 642.7-3.78 644.12-4.67 644.12-6.45L644.12-6.45 644.12-6.73Q644.12-7.88 643.59-8.63 643.05-9.38 641.65-9.95 640.25-10.53 637.67-11.1L637.67-11.1Q634.6-11.78 632.82-12.69 631.05-13.6 630.29-14.95 629.52-16.3 629.52-18.25L629.52-18.25 629.52-18.48Q629.52-21.68 631.75-23.33 633.97-24.98 638.45-24.98L638.45-24.98Q641.32-24.98 643.44-24.33 645.55-23.68 646.9-22.88L646.9-22.88 647.27-19.45Q645.65-20.4 643.55-21.03 641.45-21.65 638.82-21.65L638.82-21.65Q636.92-21.65 635.75-21.26 634.57-20.88 634.05-20.16 633.52-19.45 633.52-18.45L633.52-18.45 633.52-18.25Q633.52-17.15 634.05-16.39 634.57-15.63 635.94-15.06 637.3-14.5 639.72-13.98L639.72-13.98Q642.85-13.35 644.69-12.48 646.52-11.6 647.32-10.26 648.12-8.93 648.12-6.83L648.12-6.83 648.12-6.4Q648.12-2.95 645.72-1.2 643.32 0.55 638.65 0.55Z" opacity="1" transform="matrix(1,0,0,1,0,0)" fill="#1a1a1a" class="slogan-text-1" data-fill-palette-color="secondary" id="text-1"></path></svg></g></svg></g></svg></g></svg></g><g transform="matrix(1,0,0,1,128.3724622572882,0)"><svg viewBox="0 0 138.77507548542357 138.77507548542357" height="138.77507548542357" width="138.77507548542357"><g><svg xmlns="http://www.w3.org/2000/svg" xmlns:xlink="http://www.w3.org/1999/xlink" version="1.1" x="0" y="0" viewBox="5.2 5.2 89.6 89.6" enable-background="new 0 0 100 100" xml:space="preserve" height="138.77507548542357" width="138.77507548542357" class="icon-icon-0" data-fill-palette-color="accent" id="icon-0"><path d="M18.3 18.3C9.8 26.8 5.2 38 5.2 50s4.7 23.2 13.1 31.7C26.8 90.2 38 94.8 50 94.8s23.2-4.7 31.7-13.1C90.2 73.2 94.8 62 94.8 50s-4.7-23.2-13.1-31.7S62 5.2 50 5.2 26.8 9.8 18.3 18.3zM79.2 79.2C71.4 87 61 91.3 50 91.3S28.6 87 20.8 79.2 8.7 61 8.7 50 13 28.6 20.8 20.8C28.6 13 39 8.7 50 8.7S71.4 13 79.2 20.8C95.3 36.9 95.3 63.1 79.2 79.2zM27 46.4c0 10.9 8.9 19.8 19.8 19.8 4.8 0 9.3-1.7 12.7-4.6l10.8 10.8 2.5-2.5L62 59.1c2.9-3.4 4.6-7.9 4.6-12.7 0-10.9-8.9-19.8-19.8-19.8S27 35.4 27 46.4zM63.1 46.4c0 9-7.3 16.3-16.3 16.3s-16.3-7.3-16.3-16.3c0-9 7.3-16.3 16.3-16.3S63.1 37.4 63.1 46.4z" fill="#dfa46d" data-fill-palette-color="accent"></path></svg></g></svg></g><g></g></svg></g><defs></defs></svg><rect width="384.11090299009203" height="247.2" fill="none" stroke="none" visibility="hidden"></rect></g></svg></g></svg>